<?xml version="1.0" encoding="UTF-8"?> <svg xmlns="http://www.w3.org/2000/svg" id="Layer_1" data-name="Layer 1" viewBox="0 0 390.23 234.98"><defs><style>.cls-1{fill:#e62a32;}.cls-2{fill:#2e2d2c;}</style></defs><path class="cls-1" d="M591.45,212.65l-14.87,2.62-8,81.13a.81.81,0,0,1-.68.74L551.81,300a4.39,4.39,0,0,1-4.16-1.12,5.37,5.37,0,0,1-1.09-4.19l7.4-75.41-17.38,3.07a.83.83,0,0,1-1-.9l1.17-11.91c.44-4.55,4.44-9,8.72-9.79l56.83-10a.83.83,0,0,1,.88,1.21l-11.16,21.3a.83.83,0,0,1-.6.43M525.12,253c-1.77,18.06-3.61,32.62-9.82,42.16-6.65,10.26-16.53,16.61-29.37,18.87a45.05,45.05,0,0,1-7.77.74c-8.25,0-14-2.87-17.4-8.76-3.79-6.48-3.42-18.85-1.4-39.4,2.08-21.22,4.15-33.56,9.69-42.12,6.65-10.27,16.58-16.63,29.51-18.91a45,45,0,0,1,7.89-.76c8.17,0,13.62,2.8,17.16,8.81,4.27,7.23,3.21,22.11,1.51,39.37m-136.51,8.93L392,227.42a.85.85,0,0,1,.69-.75l22.83-4c6.69-1.18,14.38-2.44,20.8-2.44,4.29,0,7.59.57,9.82,1.71,6.28,3.17,9.07,11.71,7.86,24.05-2.08,21.25-14.53,35-35.06,38.57l-10.36,1.83-3.82,38.93a.83.83,0,0,1-.69.73l-16.25,2.87a4.4,4.4,0,0,1-4.16-1.12,5.38,5.38,0,0,1-1.1-4.2l1.67-17,.5-5.08L388.41,264Zm-5.49-19.21-2,20.53-25,4.41.61-6.15,17.74-3.13a1.65,1.65,0,0,0,1.19-.89Zm-20.36,89.92a1.66,1.66,0,0,1-1.2.89l-36.28,6.4a4.4,4.4,0,0,1-4.16-1.13,5.36,5.36,0,0,1-1.1-4.19l4.31-43.93,0-.27,0-.27,5.07-51.7a.85.85,0,0,1,.68-.74l50.29-8.87a.84.84,0,0,1,.89,1.21l-10.77,21.23a.83.83,0,0,1-.6.44l-20,3.53-2.1,21.34,26.68-4.7a.83.83,0,0,1,.89,1.2l-8.57,16.4a.85.85,0,0,1-.59.44l-20.06,3.53-2.23,22.68,28.23-5a.83.83,0,0,1,.89,1.2Zm-55.52-.94c-8,12-19.25,14.8-33.07,17.24l-26.75,4.72a.84.84,0,0,1-1-.9l7.92-80.67-14.88,2.63a.84.84,0,0,1-.88-1.21l11-21.27a.81.81,0,0,1,.59-.44l36.11-6.37a88.47,88.47,0,0,1,14.61-1.67c7.31,0,11.68,2,14.59,6.69,4.65,7.6,3.35,20.87,1.54,39.24-1.82,18.55-3.13,32-9.81,42m45-24.49.74-7.49,17.72-3.12a1.68,1.68,0,0,0,1.19-.88l7.47-14.3-2.1,21.38Zm192-114.71c-7.51,1.32-14,8.48-14.76,16.3l0,.31c-4.88-7.71-12.6-11.63-23-11.63a53.73,53.73,0,0,0-9.17.86c-15,2.65-26.59,10.1-34.4,22.16a41.48,41.48,0,0,0-3.43,6.56,20.65,20.65,0,0,0-10-11.69c-3.31-1.69-7.61-2.51-13.15-2.51-7,0-15.08,1.32-22.08,2.56l-19,3.34-3.61.64-6.37,1.12L324,231.33a1.68,1.68,0,0,0-1.38,1.48L321.34,246c-4.28-6.42-11-9.55-20.42-9.55A94.29,94.29,0,0,0,285,238.2l-39.28,6.93a1.67,1.67,0,0,0-1.2.87L226,281.82a1.67,1.67,0,0,0,1.77,2.41L246.1,281l-7.81,79.57a1.68,1.68,0,0,0,2,1.8l35.19-6.21c14.16-2.49,27.67-5.88,37.26-19.45a12,12,0,0,0,3,7,11.29,11.29,0,0,0,8.48,3.64,13.89,13.89,0,0,0,2.39-.22l39-6.87a3.57,3.57,0,0,0,2.57-1.9l7.1-14a12.26,12.26,0,0,0,3,8.32,11.29,11.29,0,0,0,8.48,3.64,13.87,13.87,0,0,0,2.39-.21l21.12-3.73a1.69,1.69,0,0,0,1.38-1.48l3.76-38.3,4.86-.86c13.51-2.38,24-8.47,31.09-17.73-1.49,18-1.13,28.41,3.12,35.69,4.83,8.22,12.81,12.38,23.74,12.38a52.62,52.62,0,0,0,9-.84c14.93-2.64,26.46-10.08,34.26-22.11,7.11-10.92,9.11-26.37,11-45.44.85-8.67,1.51-16.57,1.5-23.47l11.77-2.07L539.25,294a12.58,12.58,0,0,0,3,9.84,11.26,11.26,0,0,0,8.49,3.64,14,14,0,0,0,2.39-.21l21-3.7a1.68,1.68,0,0,0,1.37-1.48l7.9-80.5,12.53-2.21a1.65,1.65,0,0,0,1.18-.87l18.81-35.87a1.67,1.67,0,0,0-1.77-2.41Z" transform="translate(-225.83 -180.15)"></path><path class="cls-1" d="M498.31,240l-3.59,36.6a7.82,7.82,0,0,1-5.76,6.5,2.35,2.35,0,0,1-2.25-.56,3.11,3.11,0,0,1-.59-2.41l3.59-36.6a7.83,7.83,0,0,1,5.76-6.5,4,4,0,0,1,.67-.06,2,2,0,0,1,1.58.62,3.11,3.11,0,0,1,.59,2.41m-4.12-10.2c-6,1.06-11.18,6.77-11.79,13l-3.59,36.6a10.31,10.31,0,0,0,2.46,8.06,9.31,9.31,0,0,0,7,3,11.65,11.65,0,0,0,1.94-.17c6-1.06,11.18-6.77,11.79-13l3.59-36.6a10.28,10.28,0,0,0-2.45-8.06,9.66,9.66,0,0,0-9-2.86" transform="translate(-225.83 -180.15)"></path><path class="cls-1" d="M290.76,276.6l-3.59,36.6a7.81,7.81,0,0,1-5.76,6.49l-2.91.52,4.42-45.08a.85.85,0,0,1,.69-.74l4.31-.76a2.35,2.35,0,0,1,2.25.56,3.11,3.11,0,0,1,.59,2.41m-4.11-10.2L277.46,268a1.66,1.66,0,0,0-1.36,1.48l-5.64,57.43a1.67,1.67,0,0,0,2,1.81l10.28-1.82c6-1.05,11.18-6.77,11.79-13l3.59-36.6a10.34,10.34,0,0,0-2.45-8.07,9.64,9.64,0,0,0-9-2.85" transform="translate(-225.83 -180.15)"></path><path class="cls-1" d="M428.35,250.92c-.36,3-1.78,4.62-4.58,5.12l-3.84.67a.83.83,0,0,1-1-.9l.5-5.05a.83.83,0,0,1,.68-.74l6.32-1.11a1.6,1.6,0,0,1,1.55.34,2.13,2.13,0,0,1,.34,1.67m-3.17-9.25-12.43,2.2-1.43,14.58a5.68,5.68,0,0,0,1.4,4.43,5.39,5.39,0,0,0,4,1.76,6.18,6.18,0,0,0,1-.09l7.25-1.28c6-1.06,9.85-5.24,10.6-11.48a9.32,9.32,0,0,0-2.14-7.42,8.9,8.9,0,0,0-8.33-2.7" transform="translate(-225.83 -180.15)"></path><path class="cls-2" d="M456.53,370.62,456.3,373l1.74-.31a2,2,0,0,0,1.76-2,.78.78,0,0,0-.06-.5.38.38,0,0,0-.19,0l-.17,0Zm-1.59,6.65a2.78,2.78,0,0,1-2.09-.91,3,3,0,0,1-.73-2.3l.62-6.27a.81.81,0,0,1,.68-.73l5.26-.93a4.4,4.4,0,0,1,4.09,1.33,4.64,4.64,0,0,1,1.06,3.67,6,6,0,0,1-5.09,5.52l-3.27.58a3.23,3.23,0,0,1-.53,0" transform="translate(-225.83 -180.15)"></path><path class="cls-2" d="M459.47,349.39l-.24,2.48,1.83-.32a2,2,0,0,0,1.84-2.09.78.78,0,0,0-.08-.54c-.1-.1-.27-.07-.4-.05Zm-1.58,6.79h0a2.79,2.79,0,0,1-2.11-.92,3,3,0,0,1-.73-2.31l.63-6.38a.82.82,0,0,1,.68-.74l5.35-.95a4.45,4.45,0,0,1,4.14,1.35,4.68,4.68,0,0,1,1.07,3.71,6,6,0,0,1-5.16,5.6l-3.34.59a3.27,3.27,0,0,1-.53.05" transform="translate(-225.83 -180.15)"></path><path class="cls-2" d="M316.35,415.13a9.36,9.36,0,0,1-7.06-3,10.64,10.64,0,0,1-2.5-8.33L310.1,370c.65-6.7,6.17-12.82,12.55-14L367,348.28a1.94,1.94,0,0,1,1.69.5,1.92,1.92,0,0,1,.62,1.64L365.88,385l9.68-1.71,3.5-35.65a2,2,0,0,1,1.63-1.75l31.08-5.48a2,2,0,0,1,2.18,1.2l5.28,13.06,8.58-16.28a2,2,0,0,1,1.4-1l18.46-3.3v0l12.89-2.28a47.37,47.37,0,0,1,8-.95,13.8,13.8,0,0,1,6.08,1.23,11.28,11.28,0,0,1,3.33,2.42,8.93,8.93,0,0,1,6.83-7l27.2-4.8a2,2,0,0,1,2.21,1.31l1.8,5.21.58-5.86a2,2,0,0,1,1.62-1.75l18-3.19a1.22,1.22,0,0,1,1.16.24,1.12,1.12,0,0,1,.26.93l0,.17a14.23,14.23,0,0,1,5.91-2.61l28.15-5a2,2,0,0,1,2,.81,2,2,0,0,1,.12,2.1l-10.86,19.65a2,2,0,0,1-1.39,1l-10.35,1.82-1.46,14.84.79-.14.47-4.77a2,2,0,0,1,.88-1.46L570,334a2,2,0,0,1,3.06,1.85L570,367.69a3.91,3.91,0,0,1-3.2,3.46l-52.48,9.25a2,2,0,0,1-2.16-1.15l-2.28-5.15-.56,5.71a2,2,0,0,1-1.63,1.76l-27.12,4.78a5.91,5.91,0,0,1-5.49-1.76,5.64,5.64,0,0,1-1.21-2.1l-.15.18c-4.63,5.33-10.29,6.71-16.18,7.74l-34.07,6a2,2,0,0,1-1.69-.5,2,2,0,0,1-.62-1.65l1.58-15.71-.87,1.45a1.92,1.92,0,0,1-1.36.93l-6.58,1.11a1.51,1.51,0,0,1-1.74-1l-.48-1-.19,2v0L410,397.33a2,2,0,0,1-1.62,1.75l-27.13,4.79a6.85,6.85,0,0,1-1.17.1,5.71,5.71,0,0,1-4.32-1.87,6.31,6.31,0,0,1-1.51-4.94l.24-2.41-5.7,10.55a2,2,0,0,1-1.4,1l-16.83,3a5.9,5.9,0,0,1-5.48-1.77,6.34,6.34,0,0,1-1.52-4.94l.2-1.95-5.3,10a2,2,0,0,1-1.41,1L318.35,415a11.52,11.52,0,0,1-2,.18M343.54,358h-.1l-19.84,3.5c-3.94.69-7.62,4.85-8,9.07l-3.31,33.72a5.33,5.33,0,0,0,1.1,4.12,4.24,4.24,0,0,0,4,1.13l16.3-2.87a1.4,1.4,0,0,0,1-.7l5.38-10.18a.48.48,0,0,0,0-.55.53.53,0,0,0-.51-.21l-16.85,3,2.57-26.18,12.55-2.21a.51.51,0,0,0,.37-.27L344,358.77a.52.52,0,0,0,0-.56.52.52,0,0,0-.42-.22m19.24-3.39h-.09L354,356.14a.52.52,0,0,0-.43.46L349,403.11a1.06,1.06,0,0,0,.11.72.39.39,0,0,0,.26.07l.21,0,14.51-2.55a1.4,1.4,0,0,0,1-.69l5.41-10a.51.51,0,0,0-.55-.76l-10.17,1.79,3.58-36.46a.55.55,0,0,0-.17-.44.51.51,0,0,0-.35-.13m30.68-5.41h-.09l-8.72,1.54a.53.53,0,0,0-.43.47l-4.56,46.5a1.06,1.06,0,0,0,.11.72c.1.1.31.07.48,0l8.72-1.54a.54.54,0,0,0,.43-.46l2.31-23.58.31,0-.31,0L394,349.76a.52.52,0,0,0-.16-.43.5.5,0,0,0-.36-.14m15.62-2.74h-.23l-8.8,1.56a.52.52,0,0,0-.43.46L395,395.18a.51.51,0,0,0,.6.57l8.72-1.54a.52.52,0,0,0,.43-.46l3.14-32,6.48,13.66a1.36,1.36,0,0,0,1.46.76l2.36-.42a1.36,1.36,0,0,0,.91-.61l11.09-17.73-3.15,32.13a.5.5,0,0,0,.17.44.52.52,0,0,0,.44.13l8.72-1.54a.52.52,0,0,0,.43-.46l4.58-46.7a.51.51,0,0,0-.16-.44.54.54,0,0,0-.45-.13l-8.29,1.48a1.35,1.35,0,0,0-1,.71l-13,24.64-8.23-20.37a1.37,1.37,0,0,0-1.26-.84m-78.8,30.05-1.46,14.85,16.08-2.84,2.39-24.37L342,373.68a2,2,0,0,1-1.39,1Zm138.29-40.2a42.62,42.62,0,0,0-7.05.88l-13.81,2.43a.52.52,0,0,0-.43.47l-4.58,46.7a.5.5,0,0,0,.16.43.53.53,0,0,0,.45.13L456.53,385c5.25-.92,9.53-1.95,13-5.95A22,22,0,0,0,474.76,367c.39-3.93-.47-6.73-2.56-8.3l-2.27-1.72,1.8-2.2a16.62,16.62,0,0,0,3.93-9.18c.43-4.39-.7-7.27-3.38-8.55a8.5,8.5,0,0,0-3.71-.7m24.21-4.63h-.1l-6.92,1.22a3.45,3.45,0,0,0-2.42,2.8L479,380.18a1.09,1.09,0,0,0,.11.73.42.42,0,0,0,.25.06l.22,0,8.72-1.54a.52.52,0,0,0,.43-.46l4.59-46.71a.54.54,0,0,0-.17-.43.52.52,0,0,0-.35-.14m16.88-3h-.09l-10.21,1.8a.54.54,0,0,0-.43.47l-4.58,46.7a.57.57,0,0,0,.17.44.48.48,0,0,0,.44.12l8.72-1.53a.53.53,0,0,0,.43-.46l2.3-23.43,9.44,21.34a.52.52,0,0,0,.57.3l10.08-1.78a.52.52,0,0,0,.43-.46l4.59-46.7a.55.55,0,0,0-.17-.44.52.52,0,0,0-.44-.13l-8.72,1.54a.52.52,0,0,0-.43.46L519,354.72l-8.87-25.67a.53.53,0,0,0-.5-.36M564.4,319h-.09l-21.14,3.76c-4,.7-5.53,2.11-6.46,5.84l-1.48,15.23-2.66,27.05a.51.51,0,0,0,.17.43.5.5,0,0,0,.44.14l31-5.48a.53.53,0,0,0,.43-.46l2.14-21.81a.52.52,0,0,0-.26-.5.5.5,0,0,0-.55,0l-9.2,6.07a1.36,1.36,0,0,0-.61,1l-.64,6.61-12,2.12,2.57-26.18,12.16-2.15a1.31,1.31,0,0,0,1-.68l5.66-10.23a.52.52,0,0,0,0-.56.54.54,0,0,0-.43-.22" transform="translate(-225.83 -180.15)"></path></svg> 