<?xml version="1.0" encoding="UTF-8" standalone="no"?>
<!-- Created with Inkscape (http://www.inkscape.org/) -->

<svg
   xmlns:dc="http://purl.org/dc/elements/1.1/"
   xmlns:cc="http://creativecommons.org/ns#"
   xmlns:rdf="http://www.w3.org/1999/02/22-rdf-syntax-ns#"
   xmlns:svg="http://www.w3.org/2000/svg"
   xmlns="http://www.w3.org/2000/svg"
   xmlns:sodipodi="http://sodipodi.sourceforge.net/DTD/sodipodi-0.dtd"
   xmlns:inkscape="http://www.inkscape.org/namespaces/inkscape"
   width="159.55447"
   height="141.71149"
   id="svg4994"
   version="1.1"
   inkscape:version="0.48.4 r9939"
   inkscape:export-filename="/home/rob/wip/yha/screenshot.png"
   inkscape:export-xdpi="90"
   inkscape:export-ydpi="90"
   sodipodi:docname="New document 5"
   viewBox="0 0 160 141">
  <defs
     id="defs4996" />
  <sodipodi:namedview
     id="base"
     pagecolor="#ffffff"
     bordercolor="#666666"
     borderopacity="1.0"
     inkscape:pageopacity="0.0"
     inkscape:pageshadow="2"
     inkscape:zoom="0.49497475"
     inkscape:cx="78.136851"
     inkscape:cy="-41.67076"
     inkscape:document-units="px"
     inkscape:current-layer="layer1"
     showgrid="false"
     fit-margin-top="0"
     fit-margin-left="0"
     fit-margin-right="0"
     fit-margin-bottom="0"
     inkscape:window-width="472"
     inkscape:window-height="383"
     inkscape:window-x="1158"
     inkscape:window-y="554"
     inkscape:window-maximized="0" />
  <metadata
     id="metadata4999">
    <rdf:RDF>
      <cc:Work
         rdf:about="">
        <dc:format>image/svg+xml</dc:format>
        <dc:type
           rdf:resource="http://purl.org/dc/dcmitype/StillImage" />
        <dc:title></dc:title>
      </cc:Work>
    </rdf:RDF>
  </metadata>
  <g
     inkscape:label="Layer 1"
     inkscape:groupmode="layer"
     id="layer1"
     transform="translate(-367.22276,-435.00644)">
    <g
       id="g128"
       transform="matrix(1.25,0,0,-1.25,368.32904,571.85807)"
       inkscape:export-filename="/home/rob/wip/yha/favicon.ico.png"
       inkscape:export-xdpi="36.100521"
       inkscape:export-ydpi="36.100521">
      <path
         inkscape:connector-curvature="0"
         d="m 0,0 c 2.565,-4.625 8.464,-3.836 13.032,-3.838 5.101,-10e-4 10.202,-0.002 15.303,-0.004 15.937,-0.004 31.875,-0.009 47.812,-0.013 12.413,-0.003 24.827,-0.007 37.24,-0.01 5.006,-10e-4 11.635,-0.547 13.17,5.569 1.123,4.473 -2.714,9.456 -4.905,13.273 -6.845,11.925 -13.683,23.854 -20.522,35.782 -7.733,13.487 -15.465,26.974 -23.199,40.46 -2.081,3.629 -4.161,7.259 -6.244,10.886 -0.868,1.512 -1.712,3.053 -2.838,4.393 -1.769,2.105 -4.188,3.286 -6.976,2.916 -2.813,-0.373 -4.726,-2.444 -6.191,-4.715 C 54.148,102.32 52.826,99.783 51.42,97.33 48.423,92.098 45.424,86.866 42.425,81.635 34.257,67.386 26.087,53.139 17.918,38.891 12.527,29.49 7.137,20.09 1.745,10.689 -0.099,7.474 -2.071,3.589 0,0"
         style="fill:#12903e;fill-opacity:1;fill-rule:nonzero;stroke:none"
         id="path130" />
    </g>
    <g
       id="g132"
       transform="matrix(1.25,0,0,-1.25,455.70429,521.87757)"
       inkscape:export-filename="/home/rob/wip/yha/favicon.ico.png"
       inkscape:export-xdpi="36.100521"
       inkscape:export-ydpi="36.100521">
      <path
         inkscape:connector-curvature="0"
         d="m 0,0 c 4.097,0.029 6.404,-2.135 6.491,-7.501 l 0,-16.559 -7.789,0 0,14.626 c 0.029,2.164 -0.433,3.924 -2.943,3.895 -2.135,-0.029 -4.183,-1.125 -4.183,-1.125 l 0,-17.396 -7.789,0 0,32.08 4.731,0 C -9.058,7.847 -8.424,7.154 -8.424,4.5 l 0,-6.202 C -6.289,-1.125 -3.145,-0.029 0,0"
         style="fill:#ffffff;fill-opacity:1;fill-rule:nonzero;stroke:none"
         id="path134" />
    </g>
    <g
       id="g136"
       transform="matrix(1.25,0,0,-1.25,402.62279,556.96482)"
       inkscape:export-filename="/home/rob/wip/yha/favicon.ico.png"
       inkscape:export-xdpi="36.100521"
       inkscape:export-ydpi="36.100521">
      <path
         inkscape:connector-curvature="0"
         d="m 0,0 1.154,-3.317 c 0.462,-1.443 1.385,-1.818 2.394,-1.818 0.866,0 1.847,0.317 2.164,0.433 5.164,1.99 7.703,4.529 10.039,10.443 l 6.78,17.107 c 0.548,1.443 0.981,2.077 0.981,3.664 l 0,1.096 -7.039,0 -5.222,-15.174 -5.193,15.174 -7.645,0 0,-1.125 c 0.058,-1.558 0.635,-2.51 1.125,-3.692 L 6.866,3.75 C 6.202,2.25 4.356,1.356 2.51,0.692 1.154,0.26 0.029,0 0,0"
         style="fill:#ffffff;fill-opacity:1;fill-rule:nonzero;stroke:none"
         id="path138" />
    </g>
    <g
       id="g140"
       transform="matrix(1.25,0,0,-1.25,481.34341,538.71782)"
       inkscape:export-filename="/home/rob/wip/yha/favicon.ico.png"
       inkscape:export-xdpi="36.100521"
       inkscape:export-ydpi="36.100521">
      <path
         inkscape:connector-curvature="0"
         d="m 0,0 c -1.933,0 -3.75,-1.097 -3.721,-3.26 0.028,-2.193 1.846,-2.885 3.404,-2.885 1.846,0 3.029,0.952 3.519,1.356 l 0,4.529 C 2.106,-0.087 1.644,0 0,0 m 10.991,-10.617 -4.212,0 c -1.644,0.058 -3.029,0.058 -3.346,1.847 -1.991,-1.356 -4.356,-2.423 -7.818,-2.193 -2.51,0.145 -4.414,1.298 -5.539,3.116 -0.692,1.125 -1.096,2.654 -1.038,4.212 0.028,1.038 0.259,2.048 0.692,3 1.846,3.981 7.645,5.366 13.472,4.212 l 0,1.702 C 3.173,6.981 2.625,8.481 -0.577,8.51 -3,8.539 -5.885,7.645 -6.953,6.895 l -2.481,0 0,4.789 c 2.453,1.125 6.289,1.788 9.953,1.759 C 7.356,13.386 11.02,10.991 11.02,6.145 l 0,-16.762 -0.029,0 z"
         style="fill:#ffffff;fill-opacity:1;fill-rule:nonzero;stroke:none"
         id="path142" />
    </g>
  </g>
</svg>
