<svg version="1.1" viewBox="0.0 0.0 442.0 199.0" fill="none" stroke="none" stroke-linecap="square" stroke-miterlimit="10" width="442" height="199" xmlns:xlink="http://www.w3.org/1999/xlink" xmlns="http://www.w3.org/2000/svg"><path fill="#f8f5ef" d="M0 0L442.0 0L442.0 199.0L0 199.0L0 0Z" fill-rule="nonzero"/><clipPath id="id_0"><path d="M70.95 17.95L432.05 17.95L432.05 135.27681L70.95 135.27681L70.95 17.95Z" clip-rule="nonzero"/></clipPath><path stroke="#000000" stroke-width="2.0" stroke-linecap="butt" stroke-opacity="0.0" clip-path="url(#id_0)" d="M93.0 135.0L79.0 135.0L79.0 23.0C79.0 21.89543 79.89543 21.0 81.0 21.0L91.0 21.0C92.10457 21.0 93.0 21.89543 93.0 23.0Z" fill-rule="nonzero"/><path fill="#276359" clip-path="url(#id_0)" d="M93.0 135.0L79.0 135.0L79.0 23.0C79.0 21.89543 79.89543 21.0 81.0 21.0L91.0 21.0C92.10457 21.0 93.0 21.89543 93.0 23.0Z" fill-rule="nonzero"/><path stroke="#000000" stroke-width="2.0" stroke-linecap="butt" stroke-opacity="0.0" clip-path="url(#id_0)" d="M115.0 135.0L101.0 135.0L101.0 81.0C101.0 79.89543 101.89543 79.0 103.0 79.0L113.0 79.0C114.10457 79.0 115.0 79.89543 115.0 81.0Z" fill-rule="nonzero"/><path fill="#276359" clip-path="url(#id_0)" d="M115.0 135.0L101.0 135.0L101.0 81.0C101.0 79.89543 101.89543 79.0 103.0 79.0L113.0 79.0C114.10457 79.0 115.0 79.89543 115.0 81.0Z" fill-rule="nonzero"/><path stroke="#000000" stroke-width="2.0" stroke-linecap="butt" stroke-opacity="0.0" clip-path="url(#id_0)" d="M137.0 135.0L123.0 135.0L123.0 107.0C123.0 105.89543 123.89543 105.0 125.0 105.0L135.0 105.0C136.10457 105.0 137.0 105.89543 137.0 107.0Z" fill-rule="nonzero"/><path fill="#276359" clip-path="url(#id_0)" d="M137.0 135.0L123.0 135.0L123.0 107.0C123.0 105.89543 123.89543 105.0 125.0 105.0L135.0 105.0C136.10457 105.0 137.0 105.89543 137.0 107.0Z" fill-rule="nonzero"/><path stroke="#000000" stroke-width="2.0" stroke-linecap="butt" stroke-opacity="0.0" clip-path="url(#id_0)" d="M159.0 135.0L145.0 135.0L145.0 118.0C145.0 116.89543 145.89543 116.0 147.0 116.0L157.0 116.0C158.10457 116.0 159.0 116.89543 159.0 118.0Z" fill-rule="nonzero"/><path fill="#276359" clip-path="url(#id_0)" d="M159.0 135.0L145.0 135.0L145.0 118.0C145.0 116.89543 145.89543 116.0 147.0 116.0L157.0 116.0C158.10457 116.0 159.0 116.89543 159.0 118.0Z" fill-rule="nonzero"/><path stroke="#000000" stroke-width="2.0" stroke-linecap="butt" stroke-opacity="0.0" clip-path="url(#id_0)" d="M181.0 135.0L167.0 135.0L167.0 134.5C167.0 134.22386 167.22386 134.0 167.5 134.0L180.5 134.0C180.77614 134.0 181.0 134.22386 181.0 134.5Z" fill-rule="nonzero"/><path fill="#276359" clip-path="url(#id_0)" d="M181.0 135.0L167.0 135.0L167.0 134.5C167.0 134.22386 167.22386 134.0 167.5 134.0L180.5 134.0C180.77614 134.0 181.0 134.22386 181.0 134.5Z" fill-rule="nonzero"/><path stroke="#000000" stroke-width="2.0" stroke-linecap="butt" stroke-opacity="0.0" clip-path="url(#id_0)" d="M203.0 135.0L189.0 135.0L189.0 128.0C189.0 126.89543 189.89543 126.0 191.0 126.0L201.0 126.0C202.10457 126.0 203.0 126.89543 203.0 128.0Z" fill-rule="nonzero"/><path fill="#276359" clip-path="url(#id_0)" d="M203.0 135.0L189.0 135.0L189.0 128.0C189.0 126.89543 189.89543 126.0 191.0 126.0L201.0 126.0C202.10457 126.0 203.0 126.89543 203.0 128.0Z" fill-rule="nonzero"/><path stroke="#000000" stroke-width="2.0" stroke-linecap="butt" stroke-opacity="0.0" clip-path="url(#id_0)" d="M225.0 135.0L211.0 135.0L211.0 133.0C211.0 131.89543 211.89543 131.0 213.0 131.0L223.0 131.0C224.10457 131.0 225.0 131.89543 225.0 133.0Z" fill-rule="nonzero"/><path fill="#276359" clip-path="url(#id_0)" d="M225.0 135.0L211.0 135.0L211.0 133.0C211.0 131.89543 211.89543 131.0 213.0 131.0L223.0 131.0C224.10457 131.0 225.0 131.89543 225.0 133.0Z" fill-rule="nonzero"/><path stroke="#000000" stroke-width="2.0" stroke-linecap="butt" stroke-opacity="0.0" clip-path="url(#id_0)" d="M247.0 135.0L233.0 135.0L233.0 127.0C233.0 125.89543 233.89543 125.0 235.0 125.0L245.0 125.0C246.10457 125.0 247.0 125.89543 247.0 127.0Z" fill-rule="nonzero"/><path fill="#276359" clip-path="url(#id_0)" d="M247.0 135.0L233.0 135.0L233.0 127.0C233.0 125.89543 233.89543 125.0 235.0 125.0L245.0 125.0C246.10457 125.0 247.0 125.89543 247.0 127.0Z" fill-rule="nonzero"/><path stroke="#000000" stroke-width="2.0" stroke-linecap="butt" stroke-opacity="0.0" clip-path="url(#id_0)" d="M270.0 135.0L256.0 135.0L256.0 135.0L270.0 135.0Z" fill-rule="nonzero"/><path fill="#276359" clip-path="url(#id_0)" d="M270.0 135.0L256.0 135.0L256.0 135.0L270.0 135.0Z" fill-rule="nonzero"/><path stroke="#000000" stroke-width="2.0" stroke-linecap="butt" stroke-opacity="0.0" clip-path="url(#id_0)" d="M292.0 135.0L278.0 135.0L278.0 134.0C278.0 133.44771 278.44772 133.0 279.0 133.0L291.0 133.0C291.55228 133.0 292.0 133.44771 292.0 134.0Z" fill-rule="nonzero"/><path fill="#276359" clip-path="url(#id_0)" d="M292.0 135.0L278.0 135.0L278.0 134.0C278.0 133.44771 278.44772 133.0 279.0 133.0L291.0 133.0C291.55228 133.0 292.0 133.44771 292.0 134.0Z" fill-rule="nonzero"/><path stroke="#000000" stroke-width="2.0" stroke-linecap="butt" stroke-opacity="0.0" clip-path="url(#id_0)" d="M314.0 135.0L300.0 135.0L300.0 134.5C300.0 134.22386 300.22385 134.0 300.5 134.0L313.5 134.0C313.77615 134.0 314.0 134.22386 314.0 134.5Z" fill-rule="nonzero"/><path fill="#276359" clip-path="url(#id_0)" d="M314.0 135.0L300.0 135.0L300.0 134.5C300.0 134.22386 300.22385 134.0 300.5 134.0L313.5 134.0C313.77615 134.0 314.0 134.22386 314.0 134.5Z" fill-rule="nonzero"/><path stroke="#000000" stroke-width="2.0" stroke-linecap="butt" stroke-opacity="0.0" clip-path="url(#id_0)" d="M336.0 135.0L322.0 135.0L322.0 135.0L336.0 135.0Z" fill-rule="nonzero"/><path fill="#276359" clip-path="url(#id_0)" d="M336.0 135.0L322.0 135.0L322.0 135.0L336.0 135.0Z" fill-rule="nonzero"/><path stroke="#000000" stroke-width="2.0" stroke-linecap="butt" stroke-opacity="0.0" clip-path="url(#id_0)" d="M358.0 135.0L344.0 135.0L344.0 135.0L358.0 135.0Z" fill-rule="nonzero"/><path fill="#276359" clip-path="url(#id_0)" d="M358.0 135.0L344.0 135.0L344.0 135.0L358.0 135.0Z" fill-rule="nonzero"/><path stroke="#000000" stroke-width="2.0" stroke-linecap="butt" stroke-opacity="0.0" clip-path="url(#id_0)" d="M380.0 135.0L366.0 135.0L366.0 135.0L380.0 135.0Z" fill-rule="nonzero"/><path fill="#276359" clip-path="url(#id_0)" d="M380.0 135.0L366.0 135.0L366.0 135.0L380.0 135.0Z" fill-rule="nonzero"/><path stroke="#000000" stroke-width="2.0" stroke-linecap="butt" stroke-opacity="0.0" clip-path="url(#id_0)" d="M402.0 135.0L388.0 135.0L388.0 134.5C388.0 134.22386 388.22385 134.0 388.5 134.0L401.5 134.0C401.77615 134.0 402.0 134.22386 402.0 134.5Z" fill-rule="nonzero"/><path fill="#276359" clip-path="url(#id_0)" d="M402.0 135.0L388.0 135.0L388.0 134.5C388.0 134.22386 388.22385 134.0 388.5 134.0L401.5 134.0C401.77615 134.0 402.0 134.22386 402.0 134.5Z" fill-rule="nonzero"/><path stroke="#000000" stroke-width="2.0" stroke-linecap="butt" stroke-opacity="0.0" clip-path="url(#id_0)" d="M424.0 135.0L410.0 135.0L410.0 134.5C410.0 134.22386 410.22385 134.0 410.5 134.0L423.5 134.0C423.77615 134.0 424.0 134.22386 424.0 134.5Z" fill-rule="nonzero"/><path fill="#276359" clip-path="url(#id_0)" d="M424.0 135.0L410.0 135.0L410.0 134.5C410.0 134.22386 410.22385 134.0 410.5 134.0L423.5 134.0C423.77615 134.0 424.0 134.22386 424.0 134.5Z" fill-rule="nonzero"/><path fill="#276359" d="M157.10107 175.43144L157.10107 166.83769L158.25732 166.83769L162.77295 173.58769L162.77295 166.83769L163.8667 166.83769L163.8667 175.43144L162.69482 175.43144L158.1792 168.68144L158.1792 175.43144L157.10107 175.43144ZM170.0542 175.43144L170.0542 174.50957Q169.31982 175.57207 168.06982 175.57207Q167.52295 175.57207 167.03857 175.36894Q166.56982 175.15019 166.33545 174.83769Q166.10107 174.50957 166.00732 174.04082Q165.94482 173.74394 165.94482 173.05644L165.94482 169.21269L167.00732 169.21269L167.00732 172.66582Q167.00732 173.47832 167.06982 173.77519Q167.16357 174.18144 167.47607 174.43144Q167.8042 174.66582 168.28857 174.66582Q168.75732 174.66582 169.16357 174.43144Q169.58545 174.18144 169.75732 173.75957Q169.94482 173.33769 169.94482 172.54082L169.94482 169.21269L170.9917 169.21269L170.9917 175.43144L170.0542 175.43144ZM172.97607 175.43144L172.97607 169.21269L173.91357 169.21269L173.91357 170.08769Q174.21045 169.61894 174.69482 169.35332Q175.1792 169.07207 175.8042 169.07207Q176.4917 169.07207 176.9292 169.35332Q177.38232 169.63457 177.5542 170.15019Q178.3042 169.07207 179.47607 169.07207Q180.41357 169.07207 180.89795 169.58769Q181.39795 170.08769 181.39795 171.16582L181.39795 175.43144L180.35107 175.43144L180.35107 171.50957Q180.35107 170.88457 180.2417 170.60332Q180.14795 170.32207 179.88232 170.15019Q179.6167 169.97832 179.2417 169.97832Q178.58545 169.97832 178.14795 170.41582Q177.72607 170.85332 177.72607 171.82207L177.72607 175.43144L176.66357 175.43144L176.66357 171.38457Q176.66357 170.68144 176.39795 170.33769Q176.14795 169.97832 175.56982 169.97832Q175.1167 169.97832 174.7417 170.21269Q174.3667 170.44707 174.19482 170.90019Q174.02295 171.35332 174.02295 172.19707L174.02295 175.43144L172.97607 175.43144ZM184.94482 175.43144L183.96045 175.43144L183.96045 166.83769L185.02295 166.83769L185.02295 169.90019Q185.69482 169.07207 186.72607 169.07207Q187.3042 169.07207 187.8042 169.30644Q188.31982 169.52519 188.64795 169.94707Q188.9917 170.36894 189.1792 170.96269Q189.3667 171.55644 189.3667 172.22832Q189.3667 173.82207 188.56982 174.69707Q187.77295 175.57207 186.6792 175.57207Q185.56982 175.57207 184.94482 174.65019L184.94482 175.43144ZM184.9292 172.27519Q184.9292 173.38457 185.2417 173.88457Q185.7417 174.69707 186.58545 174.69707Q187.27295 174.69707 187.77295 174.10332Q188.28857 173.50957 188.28857 172.30644Q188.28857 171.08769 187.8042 170.50957Q187.31982 169.93144 186.63232 169.93144Q185.94482 169.93144 185.4292 170.54082Q184.9292 171.13457 184.9292 172.27519ZM195.22607 173.43144L196.31982 173.55644Q196.06982 174.50957 195.3667 175.04082Q194.66357 175.57207 193.58545 175.57207Q192.22607 175.57207 191.41357 174.72832Q190.6167 173.88457 190.6167 172.36894Q190.6167 170.80644 191.4292 169.94707Q192.2417 169.07207 193.52295 169.07207Q194.77295 169.07207 195.5542 169.91582Q196.35107 170.75957 196.35107 172.30644Q196.35107 172.40019 196.35107 172.58769L191.71045 172.58769Q191.77295 173.61894 192.28857 174.16582Q192.8042 174.69707 193.58545 174.69707Q194.16357 174.69707 194.56982 174.40019Q194.9917 174.08769 195.22607 173.43144ZM191.77295 171.72832L195.2417 171.72832Q195.1792 170.93144 194.85107 170.54082Q194.33545 169.93144 193.53857 169.93144Q192.8042 169.93144 192.3042 170.41582Q191.81982 170.90019 191.77295 171.72832ZM197.96045 175.43144L197.96045 169.21269L198.91357 169.21269L198.91357 170.15019Q199.27295 169.49394 199.56982 169.29082Q199.88232 169.07207 200.25732 169.07207Q200.78857 169.07207 201.33545 169.40019L200.97607 170.38457Q200.58545 170.15019 200.21045 170.15019Q199.85107 170.15019 199.56982 170.36894Q199.3042 170.57207 199.19482 170.94707Q199.00732 171.50957 199.00732 172.16582L199.00732 175.43144L197.96045 175.43144ZM204.58545 172.32207Q204.58545 170.58769 205.53857 169.75957Q206.33545 169.07207 207.4917 169.07207Q208.77295 169.07207 209.58545 169.91582Q210.41357 170.74394 210.41357 172.22832Q210.41357 173.43144 210.0542 174.11894Q209.69482 174.80644 208.9917 175.19707Q208.3042 175.57207 207.4917 175.57207Q206.19482 175.57207 205.38232 174.74394Q204.58545 173.90019 204.58545 172.32207ZM205.66357 172.32207Q205.66357 173.50957 206.1792 174.10332Q206.71045 174.69707 207.4917 174.69707Q208.28857 174.69707 208.8042 174.10332Q209.31982 173.50957 209.31982 172.29082Q209.31982 171.13457 208.78857 170.54082Q208.27295 169.94707 207.4917 169.94707Q206.71045 169.94707 206.1792 170.54082Q205.66357 171.11894 205.66357 172.32207ZM212.22607 175.43144L212.22607 170.02519L211.28857 170.02519L211.28857 169.21269L212.22607 169.21269L212.22607 168.54082Q212.22607 167.91582 212.33545 167.61894Q212.4917 167.19707 212.8667 166.94707Q213.25732 166.69707 213.94482 166.69707Q214.39795 166.69707 214.9292 166.80644L214.77295 167.71269Q214.44482 167.66582 214.14795 167.66582Q213.66357 167.66582 213.46045 167.86894Q213.27295 168.07207 213.27295 168.63457L213.27295 169.21269L214.4917 169.21269L214.4917 170.02519L213.27295 170.02519L213.27295 175.43144L212.22607 175.43144ZM222.22607 173.43144L223.31982 173.55644Q223.06982 174.50957 222.3667 175.04082Q221.66357 175.57207 220.58545 175.57207Q219.22607 175.57207 218.41357 174.72832Q217.6167 173.88457 217.6167 172.36894Q217.6167 170.80644 218.4292 169.94707Q219.2417 169.07207 220.52295 169.07207Q221.77295 169.07207 222.5542 169.91582Q223.35107 170.75957 223.35107 172.30644Q223.35107 172.40019 223.35107 172.58769L218.71045 172.58769Q218.77295 173.61894 219.28857 174.16582Q219.8042 174.69707 220.58545 174.69707Q221.16357 174.69707 221.56982 174.40019Q221.9917 174.08769 222.22607 173.43144ZM218.77295 171.72832L222.2417 171.72832Q222.1792 170.93144 221.85107 170.54082Q221.33545 169.93144 220.53857 169.93144Q219.8042 169.93144 219.3042 170.41582Q218.81982 170.90019 218.77295 171.72832ZM226.69482 175.43144L224.33545 169.21269L225.44482 169.21269L226.78857 172.93144Q226.9917 173.54082 227.1792 174.18144Q227.31982 173.69707 227.56982 173.00957L228.96045 169.21269L230.03857 169.21269L227.6792 175.43144L226.69482 175.43144ZM234.22607 173.43144L235.31982 173.55644Q235.06982 174.50957 234.3667 175.04082Q233.66357 175.57207 232.58545 175.57207Q231.22607 175.57207 230.41357 174.72832Q229.6167 173.88457 229.6167 172.36894Q229.6167 170.80644 230.4292 169.94707Q231.2417 169.07207 232.52295 169.07207Q233.77295 169.07207 234.5542 169.91582Q235.35107 170.75957 235.35107 172.30644Q235.35107 172.40019 235.35107 172.58769L230.71045 172.58769Q230.77295 173.61894 231.28857 174.16582Q231.8042 174.69707 232.58545 174.69707Q233.16357 174.69707 233.56982 174.40019Q233.9917 174.08769 234.22607 173.43144ZM230.77295 171.72832L234.2417 171.72832Q234.1792 170.93144 233.85107 170.54082Q233.33545 169.93144 232.53857 169.93144Q231.8042 169.93144 231.3042 170.41582Q230.81982 170.90019 230.77295 171.72832ZM236.97607 175.43144L236.97607 169.21269L237.91357 169.21269L237.91357 170.08769Q238.60107 169.07207 239.89795 169.07207Q240.46045 169.07207 240.9292 169.27519Q241.41357 169.47832 241.64795 169.80644Q241.88232 170.13457 241.97607 170.57207Q242.02295 170.86894 242.02295 171.60332L242.02295 175.43144L240.97607 175.43144L240.97607 171.65019Q240.97607 170.99394 240.85107 170.68144Q240.72607 170.36894 240.41357 170.18144Q240.10107 169.97832 239.6792 169.97832Q239.00732 169.97832 238.50732 170.41582Q238.02295 170.83769 238.02295 172.02519L238.02295 175.43144L236.97607 175.43144ZM246.27295 174.49394L246.4292 175.41582Q245.97607 175.50957 245.63232 175.50957Q245.0542 175.50957 244.7417 175.33769Q244.4292 175.15019 244.28857 174.85332Q244.16357 174.55644 244.16357 173.60332L244.16357 170.02519L243.39795 170.02519L243.39795 169.21269L244.16357 169.21269L244.16357 167.66582L245.21045 167.04082L245.21045 169.21269L246.27295 169.21269L246.27295 170.02519L245.21045 170.02519L245.21045 173.66582Q245.21045 174.11894 245.25732 174.24394Q245.31982 174.36894 245.44482 174.44707Q245.56982 174.52519 245.8042 174.52519Q245.9917 174.52519 246.27295 174.49394ZM246.5542 173.57207L247.58545 173.41582Q247.6792 174.04082 248.06982 174.36894Q248.47607 174.69707 249.21045 174.69707Q249.9292 174.69707 250.27295 174.41582Q250.63232 174.11894 250.63232 173.71269Q250.63232 173.35332 250.31982 173.15019Q250.10107 173.00957 249.2417 172.79082Q248.08545 172.49394 247.63232 172.29082Q247.19482 172.07207 246.96045 171.69707Q246.72607 171.32207 246.72607 170.85332Q246.72607 170.44707 246.91357 170.08769Q247.10107 169.72832 247.4292 169.49394Q247.6792 169.32207 248.10107 169.19707Q248.52295 169.07207 249.02295 169.07207Q249.7417 169.07207 250.28857 169.29082Q250.85107 169.49394 251.1167 169.85332Q251.38232 170.21269 251.47607 170.80644L250.44482 170.94707Q250.38232 170.47832 250.03857 170.21269Q249.71045 169.93144 249.08545 169.93144Q248.3667 169.93144 248.0542 170.18144Q247.7417 170.41582 247.7417 170.74394Q247.7417 170.94707 247.8667 171.10332Q248.00732 171.27519 248.27295 171.38457Q248.4292 171.44707 249.21045 171.65019Q250.33545 171.96269 250.77295 172.15019Q251.21045 172.33769 251.46045 172.69707Q251.71045 173.05644 251.71045 173.60332Q251.71045 174.13457 251.39795 174.60332Q251.10107 175.05644 250.52295 175.32207Q249.94482 175.57207 249.21045 175.57207Q247.9917 175.57207 247.35107 175.07207Q246.72607 174.55644 246.5542 173.57207ZM261.03857 174.66582Q260.44482 175.16582 259.89795 175.36894Q259.3667 175.57207 258.7417 175.57207Q257.71045 175.57207 257.16357 175.07207Q256.6167 174.57207 256.6167 173.79082Q256.6167 173.33769 256.81982 172.96269Q257.02295 172.57207 257.3667 172.35332Q257.71045 172.11894 258.13232 172.00957Q258.4292 171.91582 259.06982 171.83769Q260.33545 171.69707 260.94482 171.47832Q260.94482 171.25957 260.94482 171.21269Q260.94482 170.55644 260.64795 170.29082Q260.2417 169.94707 259.44482 169.94707Q258.71045 169.94707 258.35107 170.21269Q257.9917 170.46269 257.81982 171.11894L256.78857 170.97832Q256.9292 170.32207 257.25732 169.91582Q257.58545 169.50957 258.19482 169.29082Q258.8042 169.07207 259.60107 169.07207Q260.39795 169.07207 260.89795 169.25957Q261.39795 169.44707 261.63232 169.72832Q261.8667 170.00957 261.96045 170.44707Q262.00732 170.71269 262.00732 171.41582L262.00732 172.82207Q262.00732 174.29082 262.06982 174.68144Q262.14795 175.07207 262.35107 175.43144L261.2417 175.43144Q261.08545 175.10332 261.03857 174.66582ZM260.94482 172.30644Q260.3667 172.54082 259.22607 172.71269Q258.56982 172.80644 258.3042 172.93144Q258.03857 173.04082 257.88232 173.25957Q257.7417 173.47832 257.7417 173.75957Q257.7417 174.18144 258.0542 174.46269Q258.38232 174.74394 258.9917 174.74394Q259.60107 174.74394 260.06982 174.47832Q260.5542 174.21269 260.77295 173.74394Q260.94482 173.38457 260.94482 172.69707L260.94482 172.30644ZM266.27295 174.49394L266.4292 175.41582Q265.97607 175.50957 265.63232 175.50957Q265.0542 175.50957 264.7417 175.33769Q264.4292 175.15019 264.28857 174.85332Q264.16357 174.55644 264.16357 173.60332L264.16357 170.02519L263.39795 170.02519L263.39795 169.21269L264.16357 169.21269L264.16357 167.66582L265.21045 167.04082L265.21045 169.21269L266.27295 169.21269L266.27295 170.02519L265.21045 170.02519L265.21045 173.66582Q265.21045 174.11894 265.25732 174.24394Q265.31982 174.36894 265.44482 174.44707Q265.56982 174.52519 265.8042 174.52519Q265.9917 174.52519 266.27295 174.49394ZM269.27295 174.49394L269.4292 175.41582Q268.97607 175.50957 268.63232 175.50957Q268.0542 175.50957 267.7417 175.33769Q267.4292 175.15019 267.28857 174.85332Q267.16357 174.55644 267.16357 173.60332L267.16357 170.02519L266.39795 170.02519L266.39795 169.21269L267.16357 169.21269L267.16357 167.66582L268.21045 167.04082L268.21045 169.21269L269.27295 169.21269L269.27295 170.02519L268.21045 170.02519L268.21045 173.66582Q268.21045 174.11894 268.25732 174.24394Q268.31982 174.36894 268.44482 174.44707Q268.56982 174.52519 268.8042 174.52519Q268.9917 174.52519 269.27295 174.49394ZM274.22607 173.43144L275.31982 173.55644Q275.06982 174.50957 274.3667 175.04082Q273.66357 175.57207 272.58545 175.57207Q271.22607 175.57207 270.41357 174.72832Q269.6167 173.88457 269.6167 172.36894Q269.6167 170.80644 270.4292 169.94707Q271.2417 169.07207 272.52295 169.07207Q273.77295 169.07207 274.5542 169.91582Q275.35107 170.75957 275.35107 172.30644Q275.35107 172.40019 275.35107 172.58769L270.71045 172.58769Q270.77295 173.61894 271.28857 174.16582Q271.8042 174.69707 272.58545 174.69707Q273.16357 174.69707 273.56982 174.40019Q273.9917 174.08769 274.22607 173.43144ZM270.77295 171.72832L274.2417 171.72832Q274.1792 170.93144 273.85107 170.54082Q273.33545 169.93144 272.53857 169.93144Q271.8042 169.93144 271.3042 170.41582Q270.81982 170.90019 270.77295 171.72832ZM276.97607 175.43144L276.97607 169.21269L277.91357 169.21269L277.91357 170.08769Q278.60107 169.07207 279.89795 169.07207Q280.46045 169.07207 280.9292 169.27519Q281.41357 169.47832 281.64795 169.80644Q281.88232 170.13457 281.97607 170.57207Q282.02295 170.86894 282.02295 171.60332L282.02295 175.43144L280.97607 175.43144L280.97607 171.65019Q280.97607 170.99394 280.85107 170.68144Q280.72607 170.36894 280.41357 170.18144Q280.10107 169.97832 279.6792 169.97832Q279.00732 169.97832 278.50732 170.41582Q278.02295 170.83769 278.02295 172.02519L278.02295 175.43144L276.97607 175.43144ZM288.00732 175.43144L288.00732 174.65019Q287.41357 175.57207 286.27295 175.57207Q285.52295 175.57207 284.89795 175.16582Q284.27295 174.74394 283.9292 174.00957Q283.58545 173.27519 283.58545 172.32207Q283.58545 171.40019 283.89795 170.63457Q284.21045 169.86894 284.83545 169.47832Q285.46045 169.07207 286.22607 169.07207Q286.78857 169.07207 287.22607 169.30644Q287.66357 169.54082 287.94482 169.91582L287.94482 166.83769L288.9917 166.83769L288.9917 175.43144L288.00732 175.43144ZM284.6792 172.32207Q284.6792 173.52519 285.1792 174.11894Q285.6792 174.69707 286.3667 174.69707Q287.0542 174.69707 287.53857 174.13457Q288.02295 173.57207 288.02295 172.41582Q288.02295 171.13457 287.52295 170.54082Q287.03857 169.94707 286.31982 169.94707Q285.6167 169.94707 285.14795 170.52519Q284.6792 171.08769 284.6792 172.32207ZM295.22607 173.43144L296.31982 173.55644Q296.06982 174.50957 295.3667 175.04082Q294.66357 175.57207 293.58545 175.57207Q292.22607 175.57207 291.41357 174.72832Q290.6167 173.88457 290.6167 172.36894Q290.6167 170.80644 291.4292 169.94707Q292.2417 169.07207 293.52295 169.07207Q294.77295 169.07207 295.5542 169.91582Q296.35107 170.75957 296.35107 172.30644Q296.35107 172.40019 296.35107 172.58769L291.71045 172.58769Q291.77295 173.61894 292.28857 174.16582Q292.8042 174.69707 293.58545 174.69707Q294.16357 174.69707 294.56982 174.40019Q294.9917 174.08769 295.22607 173.43144ZM291.77295 171.72832L295.2417 171.72832Q295.1792 170.93144 294.85107 170.54082Q294.33545 169.93144 293.53857 169.93144Q292.8042 169.93144 292.3042 170.41582Q291.81982 170.90019 291.77295 171.72832ZM302.00732 175.43144L302.00732 174.65019Q301.41357 175.57207 300.27295 175.57207Q299.52295 175.57207 298.89795 175.16582Q298.27295 174.74394 297.9292 174.00957Q297.58545 173.27519 297.58545 172.32207Q297.58545 171.40019 297.89795 170.63457Q298.21045 169.86894 298.83545 169.47832Q299.46045 169.07207 300.22607 169.07207Q300.78857 169.07207 301.22607 169.30644Q301.66357 169.54082 301.94482 169.91582L301.94482 166.83769L302.9917 166.83769L302.9917 175.43144L302.00732 175.43144ZM298.6792 172.32207Q298.6792 173.52519 299.1792 174.11894Q299.6792 174.69707 300.3667 174.69707Q301.0542 174.69707 301.53857 174.13457Q302.02295 173.57207 302.02295 172.41582Q302.02295 171.13457 301.52295 170.54082Q301.03857 169.94707 300.31982 169.94707Q299.6167 169.94707 299.14795 170.52519Q298.6792 171.08769 298.6792 172.32207Z" fill-rule="nonzero"/><path fill="#276359" d="M31.950006 133.69153L23.356256 133.69153L23.356256 132.53528L30.106256 128.01965L23.356256 128.01965L23.356256 126.9259L31.950006 126.9259L31.950006 128.09778L25.200006 132.6134L31.950006 132.6134L31.950006 133.69153ZM31.950006 120.7384L31.028131 120.7384Q32.09063 121.47278 32.09063 122.72278Q32.09063 123.26965 31.887506 123.75403Q31.668756 124.22278 31.356256 124.45715Q31.028131 124.69153 30.559381 124.78528Q30.262506 124.84778 29.575006 124.84778L25.731256 124.84778L25.731256 123.78528L29.184381 123.78528Q29.996881 123.78528 30.293756 123.72278Q30.700006 123.62903 30.950006 123.31653Q31.184381 122.9884 31.184381 122.50403Q31.184381 122.03528 30.950006 121.62903Q30.700006 121.20715 30.278131 121.03528Q29.856256 120.84778 29.059381 120.84778L25.731256 120.84778L25.731256 119.8009L31.950006 119.8009L31.950006 120.7384ZM31.950006 117.81653L25.731256 117.81653L25.731256 116.87903L26.606256 116.87903Q26.137506 116.58215 25.871881 116.09778Q25.590631 115.6134 25.590631 114.9884Q25.590631 114.3009 25.871881 113.8634Q26.153131 113.41028 26.668756 113.2384Q25.590631 112.4884 25.590631 111.31653Q25.590631 110.37903 26.106256 109.89465Q26.606256 109.39465 27.684381 109.39465L31.950006 109.39465L31.950006 110.44153L28.028131 110.44153Q27.403131 110.44153 27.121881 110.5509Q26.840631 110.64465 26.668756 110.91028Q26.496881 111.1759 26.496881 111.5509Q26.496881 112.20715 26.934381 112.64465Q27.371881 113.06653 28.340631 113.06653L31.950006 113.06653L31.950006 114.12903L27.903131 114.12903Q27.200006 114.12903 26.856256 114.39465Q26.496881 114.64465 26.496881 115.22278Q26.496881 115.6759 26.731256 116.0509Q26.965631 116.4259 27.418756 116.59778Q27.871881 116.76965 28.715631 116.76965L31.950006 116.76965L31.950006 117.81653ZM31.950006 105.84778L31.950006 106.83215L23.356256 106.83215L23.356256 105.76965L26.418756 105.76965Q25.590631 105.09778 25.590631 104.06653Q25.590631 103.4884 25.825006 102.9884Q26.043756 102.47278 26.465631 102.14465Q26.887506 101.8009 27.481256 101.6134Q28.075006 101.4259 28.746881 101.4259Q30.340631 101.4259 31.215631 102.22278Q32.09063 103.01965 32.09063 104.1134Q32.09063 105.22278 31.168756 105.84778L31.950006 105.84778ZM28.793756 105.8634Q29.903131 105.8634 30.403131 105.5509Q31.215631 105.0509 31.215631 104.20715Q31.215631 103.51965 30.621881 103.01965Q30.028131 102.50403 28.825006 102.50403Q27.606256 102.50403 27.028131 102.9884Q26.450006 103.47278 26.450006 104.16028Q26.450006 104.84778 27.059381 105.3634Q27.653131 105.8634 28.793756 105.8634ZM29.950006 95.56653L30.075006 94.47278Q31.028131 94.72278 31.559381 95.4259Q32.09063 96.12903 32.09063 97.20715Q32.09063 98.56653 31.246881 99.37903Q30.403131 100.1759 28.887506 100.1759Q27.325006 100.1759 26.465631 99.3634Q25.590631 98.5509 25.590631 97.26965Q25.590631 96.01965 26.434381 95.2384Q27.278131 94.44153 28.825006 94.44153Q28.918756 94.44153 29.106256 94.44153L29.106256 99.08215Q30.137506 99.01965 30.684381 98.50403Q31.215631 97.9884 31.215631 97.20715Q31.215631 96.62903 30.918756 96.22278Q30.606256 95.8009 29.950006 95.56653ZM28.246881 99.01965L28.246881 95.5509Q27.450006 95.6134 27.059381 95.94153Q26.450006 96.45715 26.450006 97.25403Q26.450006 97.9884 26.934381 98.4884Q27.418756 98.97278 28.246881 99.01965ZM31.950006 92.83215L25.731256 92.83215L25.731256 91.87903L26.668756 91.87903Q26.012506 91.51965 25.809381 91.22278Q25.590631 90.91028 25.590631 90.53528Q25.590631 90.00403 25.918756 89.45715L26.903131 89.81653Q26.668756 90.20715 26.668756 90.58215Q26.668756 90.94153 26.887506 91.22278Q27.090631 91.4884 27.465631 91.59778Q28.028131 91.78528 28.684381 91.78528L31.950006 91.78528L31.950006 92.83215ZM28.840631 86.20715Q27.106256 86.20715 26.278131 85.25403Q25.590631 84.45715 25.590631 83.3009Q25.590631 82.01965 26.434381 81.20715Q27.262506 80.37903 28.746881 80.37903Q29.950006 80.37903 30.637506 80.7384Q31.325006 81.09778 31.715631 81.8009Q32.09063 82.4884 32.09063 83.3009Q32.09063 84.59778 31.262506 85.41028Q30.418756 86.20715 28.840631 86.20715ZM28.840631 85.12903Q30.028131 85.12903 30.621881 84.6134Q31.215631 84.08215 31.215631 83.3009Q31.215631 82.50403 30.621881 81.9884Q30.028131 81.47278 28.809381 81.47278Q27.653131 81.47278 27.059381 82.00403Q26.465631 82.51965 26.465631 83.3009Q26.465631 84.08215 27.059381 84.6134Q27.637506 85.12903 28.840631 85.12903ZM31.950006 78.56653L26.543756 78.56653L26.543756 79.50403L25.731256 79.50403L25.731256 78.56653L25.059381 78.56653Q24.434381 78.56653 24.137506 78.45715Q23.715631 78.3009 23.465631 77.9259Q23.215631 77.53528 23.215631 76.84778Q23.215631 76.39465 23.325006 75.8634L24.231256 76.01965Q24.184381 76.34778 24.184381 76.64465Q24.184381 77.12903 24.387506 77.33215Q24.590631 77.51965 25.153131 77.51965L25.731256 77.51965L25.731256 76.3009L26.543756 76.3009L26.543756 77.51965L31.950006 77.51965L31.950006 78.56653ZM31.950006 72.81653L25.731256 72.81653L25.731256 71.87903L26.606256 71.87903Q26.137506 71.58215 25.871881 71.09778Q25.590631 70.6134 25.590631 69.9884Q25.590631 69.3009 25.871881 68.8634Q26.153131 68.41028 26.668756 68.2384Q25.590631 67.4884 25.590631 66.31653Q25.590631 65.37903 26.106256 64.89465Q26.606256 64.39465 27.684381 64.39465L31.950006 64.39465L31.950006 65.44153L28.028131 65.44153Q27.403131 65.44153 27.121881 65.5509Q26.840631 65.64465 26.668756 65.91028Q26.496881 66.1759 26.496881 66.5509Q26.496881 67.20715 26.934381 67.64465Q27.371881 68.06653 28.340631 68.06653L31.950006 68.06653L31.950006 69.12903L27.903131 69.12903Q27.200006 69.12903 26.856256 69.39465Q26.496881 69.64465 26.496881 70.22278Q26.496881 70.6759 26.731256 71.0509Q26.965631 71.4259 27.418756 71.59778Q27.871881 71.76965 28.715631 71.76965L31.950006 71.76965L31.950006 72.81653ZM29.950006 57.566525L30.075006 56.472775Q31.028131 56.722775 31.559381 57.4259Q32.09063 58.129025 32.09063 59.20715Q32.09063 60.566525 31.246881 61.379025Q30.403131 62.1759 28.887506 62.1759Q27.325006 62.1759 26.465631 61.3634Q25.590631 60.5509 25.590631 59.26965Q25.590631 58.01965 26.434381 57.2384Q27.278131 56.441525 28.825006 56.441525Q28.918756 56.441525 29.106256 56.441525L29.106256 61.08215Q30.137506 61.01965 30.684381 60.504025Q31.215631 59.9884 31.215631 59.20715Q31.215631 58.629025 30.918756 58.222775Q30.606256 57.8009 29.950006 57.566525ZM28.246881 61.01965L28.246881 57.5509Q27.450006 57.6134 27.059381 57.941525Q26.450006 58.45715 26.450006 59.254025Q26.450006 59.9884 26.934381 60.4884Q27.418756 60.972775 28.246881 61.01965ZM31.950006 54.816525L25.731256 54.816525L25.731256 53.879025L26.606256 53.879025Q26.137506 53.58215 25.871881 53.097775Q25.590631 52.6134 25.590631 51.9884Q25.590631 51.3009 25.871881 50.8634Q26.153131 50.410275 26.668756 50.2384Q25.590631 49.4884 25.590631 48.316525Q25.590631 47.379025 26.106256 46.89465Q26.606256 46.39465 27.684381 46.39465L31.950006 46.39465L31.950006 47.441525L28.028131 47.441525Q27.403131 47.441525 27.121881 47.5509Q26.840631 47.64465 26.668756 47.910275Q26.496881 48.1759 26.496881 48.5509Q26.496881 49.20715 26.934381 49.64465Q27.371881 50.066525 28.340631 50.066525L31.950006 50.066525L31.950006 51.129025L27.903131 51.129025Q27.200006 51.129025 26.856256 51.39465Q26.496881 51.64465 26.496881 52.222775Q26.496881 52.6759 26.731256 53.0509Q26.965631 53.4259 27.418756 53.597775Q27.871881 53.76965 28.715631 53.76965L31.950006 53.76965L31.950006 54.816525ZM31.950006 42.847775L31.950006 43.83215L23.356256 43.83215L23.356256 42.76965L26.418756 42.76965Q25.590631 42.097775 25.590631 41.066525Q25.590631 40.4884 25.825006 39.9884Q26.043756 39.472775 26.465631 39.14465Q26.887506 38.8009 27.481256 38.6134Q28.075006 38.4259 28.746881 38.4259Q30.340631 38.4259 31.215631 39.222775Q32.09063 40.01965 32.09063 41.1134Q32.09063 42.222775 31.168756 42.847775L31.950006 42.847775ZM28.793756 42.8634Q29.903131 42.8634 30.403131 42.5509Q31.215631 42.0509 31.215631 41.20715Q31.215631 40.51965 30.621881 40.01965Q30.028131 39.504025 28.825006 39.504025Q27.606256 39.504025 27.028131 39.9884Q26.450006 40.472775 26.450006 41.160275Q26.450006 41.847775 27.059381 42.3634Q27.653131 42.8634 28.793756 42.8634ZM29.950006 32.566525L30.075006 31.472776Q31.028131 31.722776 31.559381 32.4259Q32.09063 33.129025 32.09063 34.20715Q32.09063 35.566525 31.246881 36.379025Q30.403131 37.1759 28.887506 37.1759Q27.325006 37.1759 26.465631 36.3634Q25.590631 35.5509 25.590631 34.26965Q25.590631 33.01965 26.434381 32.2384Q27.278131 31.441526 28.825006 31.441526Q28.918756 31.441526 29.106256 31.441526L29.106256 36.08215Q30.137506 36.01965 30.684381 35.504025Q31.215631 34.9884 31.215631 34.20715Q31.215631 33.629025 30.918756 33.222775Q30.606256 32.8009 29.950006 32.566525ZM28.246881 36.01965L28.246881 32.5509Q27.450006 32.6134 27.059381 32.941525Q26.450006 33.45715 26.450006 34.254025Q26.450006 34.9884 26.934381 35.4884Q27.418756 35.972775 28.246881 36.01965ZM31.950006 29.832151L25.731256 29.832151L25.731256 28.879026L26.668756 28.879026Q26.012506 28.519651 25.809381 28.222776Q25.590631 27.910276 25.590631 27.535276Q25.590631 27.004026 25.918756 26.457151L26.903131 26.816526Q26.668756 27.207151 26.668756 27.582151Q26.668756 27.941526 26.887506 28.222776Q27.090631 28.488401 27.465631 28.597776Q28.028131 28.785276 28.684381 28.785276L31.950006 28.785276L31.950006 29.832151ZM30.090631 26.238401L29.934381 25.207151Q30.559381 25.113401 30.887506 24.722776Q31.215631 24.316526 31.215631 23.582151Q31.215631 22.863401 30.934381 22.519651Q30.637506 22.160276 30.231256 22.160276Q29.871881 22.160276 29.668756 22.472776Q29.528131 22.691526 29.309381 23.550901Q29.012506 24.707151 28.809381 25.160276Q28.590631 25.597776 28.215631 25.832151Q27.840631 26.066526 27.371881 26.066526Q26.965631 26.066526 26.606256 25.879026Q26.246881 25.691526 26.012506 25.363401Q25.840631 25.113401 25.715631 24.691526Q25.590631 24.269651 25.590631 23.769651Q25.590631 23.050901 25.809381 22.504026Q26.012506 21.941526 26.371881 21.675901Q26.731256 21.410276 27.325006 21.316526L27.465631 22.347776Q26.996881 22.410276 26.731256 22.754026Q26.450006 23.082151 26.450006 23.707151Q26.450006 24.425901 26.700006 24.738401Q26.934381 25.050901 27.262506 25.050901Q27.465631 25.050901 27.621881 24.925901Q27.793756 24.785276 27.903131 24.519651Q27.965631 24.363401 28.168756 23.582151Q28.481256 22.457151 28.668756 22.019651Q28.856256 21.582151 29.215631 21.332151Q29.575006 21.082151 30.121881 21.082151Q30.653131 21.082151 31.121881 21.394651Q31.575006 21.691526 31.840631 22.269651Q32.09063 22.847776 32.09063 23.582151Q32.09063 24.800901 31.590631 25.441526Q31.075006 26.066526 30.090631 26.238401Z" fill-rule="nonzero"/><path fill="#276359" d="M56.528126 135.33931Q56.528126 133.55806 56.8875 132.47993Q57.2625 131.38618 57.98125 130.80806Q58.7 130.21431 59.79375 130.21431Q60.60625 130.21431 61.215626 130.54243Q61.825 130.87056 62.215626 131.47993Q62.621876 132.08931 62.840626 132.96431Q63.059376 133.83931 63.059376 135.33931Q63.059376 137.10493 62.7 138.18306Q62.340626 139.26118 61.621876 139.85493Q60.903126 140.44868 59.79375 140.44868Q58.35625 140.44868 57.528126 139.40181Q56.528126 138.15181 56.528126 135.33931ZM57.79375 135.33931Q57.79375 137.80806 58.371876 138.62056Q58.95 139.43306 59.79375 139.43306Q60.653126 139.43306 61.23125 138.62056Q61.809376 137.79243 61.809376 135.33931Q61.809376 132.85493 61.23125 132.04243Q60.653126 131.22993 59.778126 131.22993Q58.934376 131.22993 58.434376 131.94868Q57.79375 132.87056 57.79375 135.33931Z" fill-rule="nonzero"/><path fill="#276359" d="M54.996876 115.62394L54.996876 116.81144L48.371876 116.81144Q48.35625 116.37394 48.5125 115.952065Q48.778126 115.28019 49.325 114.62394Q49.8875 113.96769 50.934376 113.108315Q52.575 111.764565 53.1375 110.983315Q53.715626 110.202065 53.715626 109.49894Q53.715626 108.764565 53.184376 108.264565Q52.66875 107.764565 51.840626 107.764565Q50.95 107.764565 50.403126 108.295815Q49.871876 108.827065 49.871876 109.78019L48.60625 109.639565Q48.73125 108.233315 49.575 107.49894Q50.434376 106.74894 51.85625 106.74894Q53.309376 106.74894 54.1375 107.545815Q54.98125 108.34269 54.98125 109.53019Q54.98125 110.139565 54.73125 110.71769Q54.496876 111.295815 53.91875 111.93644Q53.35625 112.577065 52.028126 113.702065Q50.91875 114.62394 50.60625 114.96769Q50.29375 115.295815 50.090626 115.62394L54.996876 115.62394ZM56.528126 114.18644L57.825 114.077065Q57.965626 115.014565 58.48125 115.49894Q59.0125 115.96769 59.746876 115.96769Q60.6375 115.96769 61.246876 115.295815Q61.871876 114.62394 61.871876 113.53019Q61.871876 112.46769 61.278126 111.858315Q60.684376 111.24894 59.73125 111.24894Q59.1375 111.24894 58.653126 111.53019Q58.184376 111.795815 57.903126 112.21769L56.746876 112.077065L57.715626 106.920815L62.7 106.920815L62.7 108.108315L58.7 108.108315L58.16875 110.795815Q59.075 110.170815 60.059376 110.170815Q61.371876 110.170815 62.2625 111.077065Q63.16875 111.983315 63.16875 113.420815Q63.16875 114.78019 62.3875 115.764565Q61.41875 116.983315 59.746876 116.983315Q58.3875 116.983315 57.5125 116.21769Q56.653126 115.452065 56.528126 114.18644Z" fill-rule="nonzero"/><path fill="#276359" d="M48.528126 90.721085L49.825 90.61171Q49.965626 91.54921 50.48125 92.033585Q51.0125 92.502335 51.746876 92.502335Q52.6375 92.502335 53.246876 91.83046Q53.871876 91.158585 53.871876 90.064835Q53.871876 89.002335 53.278126 88.39296Q52.684376 87.783585 51.73125 87.783585Q51.1375 87.783585 50.653126 88.064835Q50.184376 88.33046 49.903126 88.752335L48.746876 88.61171L49.715626 83.45546L54.7 83.45546L54.7 84.64296L50.7 84.64296L50.16875 87.33046Q51.075 86.70546 52.059376 86.70546Q53.371876 86.70546 54.2625 87.61171Q55.16875 88.51796 55.16875 89.95546Q55.16875 91.314835 54.3875 92.29921Q53.41875 93.51796 51.746876 93.51796Q50.3875 93.51796 49.5125 92.752335Q48.653126 91.98671 48.528126 90.721085ZM56.528126 88.408585Q56.528126 86.627335 56.8875 85.54921Q57.2625 84.45546 57.98125 83.877335Q58.7 83.283585 59.79375 83.283585Q60.60625 83.283585 61.215626 83.61171Q61.825 83.939835 62.215626 84.54921Q62.621876 85.158585 62.840626 86.033585Q63.059376 86.908585 63.059376 88.408585Q63.059376 90.17421 62.7 91.252335Q62.340626 92.33046 61.621876 92.92421Q60.903126 93.51796 59.79375 93.51796Q58.35625 93.51796 57.528126 92.471085Q56.528126 91.221085 56.528126 88.408585ZM57.79375 88.408585Q57.79375 90.877335 58.371876 91.689835Q58.95 92.502335 59.79375 92.502335Q60.653126 92.502335 61.23125 91.689835Q61.809376 90.86171 61.809376 88.408585Q61.809376 85.92421 61.23125 85.11171Q60.653126 84.29921 59.778126 84.29921Q58.934376 84.29921 58.434376 85.01796Q57.79375 85.939835 57.79375 88.408585Z" fill-rule="nonzero"/><path fill="#276359" d="M48.60625 61.177597L48.60625 59.990097L55.10625 59.990097L55.10625 60.943222Q54.1375 61.958847 53.2 63.646347Q52.2625 65.33385 51.746876 67.13072Q51.3875 68.38072 51.278126 69.88072L50.0125 69.88072Q50.028126 68.69322 50.465626 67.02135Q50.91875 65.34947 51.746876 63.802597Q52.590626 62.240097 53.528126 61.177597L48.60625 61.177597ZM56.528126 67.25572L57.825 67.14635Q57.965626 68.08385 58.48125 68.56822Q59.0125 69.03697 59.746876 69.03697Q60.6375 69.03697 61.246876 68.3651Q61.871876 67.69322 61.871876 66.59947Q61.871876 65.53697 61.278126 64.9276Q60.684376 64.31822 59.73125 64.31822Q59.1375 64.31822 58.653126 64.59947Q58.184376 64.8651 57.903126 65.28697L56.746876 65.14635L57.715626 59.990097L62.7 59.990097L62.7 61.177597L58.7 61.177597L58.16875 63.865097Q59.075 63.240097 60.059376 63.240097Q61.371876 63.240097 62.2625 64.14635Q63.16875 65.0526 63.16875 66.4901Q63.16875 67.84947 62.3875 68.83385Q61.41875 70.0526 59.746876 70.0526Q58.3875 70.0526 57.5125 69.28697Q56.653126 68.52135 56.528126 67.25572Z" fill-rule="nonzero"/><path fill="#276359" d="M45.16875 46.41536L43.934376 46.41536L43.934376 38.57161Q43.496876 38.993484 42.7625 39.430984Q42.04375 39.85286 41.48125 40.055984L41.48125 38.868484Q42.5125 38.38411 43.278126 37.69661Q44.059376 37.00911 44.371876 36.35286L45.16875 36.35286L45.16875 46.41536ZM48.528126 41.47786Q48.528126 39.69661 48.8875 38.618484Q49.2625 37.524734 49.98125 36.94661Q50.7 36.35286 51.79375 36.35286Q52.60625 36.35286 53.215626 36.680984Q53.825 37.00911 54.215626 37.618484Q54.621876 38.22786 54.840626 39.10286Q55.059376 39.97786 55.059376 41.47786Q55.059376 43.243484 54.7 44.32161Q54.340626 45.399734 53.621876 45.993484Q52.903126 46.587234 51.79375 46.587234Q50.35625 46.587234 49.528126 45.54036Q48.528126 44.29036 48.528126 41.47786ZM49.79375 41.47786Q49.79375 43.94661 50.371876 44.75911Q50.95 45.57161 51.79375 45.57161Q52.653126 45.57161 53.23125 44.75911Q53.809376 43.930984 53.809376 41.47786Q53.809376 38.993484 53.23125 38.180984Q52.653126 37.368484 51.778126 37.368484Q50.934376 37.368484 50.434376 38.087234Q49.79375 39.00911 49.79375 41.47786ZM56.528126 41.47786Q56.528126 39.69661 56.8875 38.618484Q57.2625 37.524734 57.98125 36.94661Q58.7 36.35286 59.79375 36.35286Q60.60625 36.35286 61.215626 36.680984Q61.825 37.00911 62.215626 37.618484Q62.621876 38.22786 62.840626 39.10286Q63.059376 39.97786 63.059376 41.47786Q63.059376 43.243484 62.7 44.32161Q62.340626 45.399734 61.621876 45.993484Q60.903126 46.587234 59.79375 46.587234Q58.35625 46.587234 57.528126 45.54036Q56.528126 44.29036 56.528126 41.47786ZM57.79375 41.47786Q57.79375 43.94661 58.371876 44.75911Q58.95 45.57161 59.79375 45.57161Q60.653126 45.57161 61.23125 44.75911Q61.809376 43.930984 61.809376 41.47786Q61.809376 38.993484 61.23125 38.180984Q60.653126 37.368484 59.778126 37.368484Q58.934376 37.368484 58.434376 38.087234Q57.79375 39.00911 57.79375 41.47786Z" fill-rule="nonzero"/><path fill="#276359" d="M45.16875 22.95L43.934376 22.95L43.934376 15.106251Q43.496876 15.528126 42.7625 15.965626Q42.04375 16.3875 41.48125 16.590626L41.48125 15.403126Q42.5125 14.918751 43.278126 14.231251Q44.059376 13.543751 44.371876 12.887501L45.16875 12.887501L45.16875 22.95ZM54.996876 21.7625L54.996876 22.95L48.371876 22.95Q48.35625 22.5125 48.5125 22.090626Q48.778126 21.41875 49.325 20.7625Q49.8875 20.10625 50.934376 19.246876Q52.575 17.903126 53.1375 17.121876Q53.715626 16.340626 53.715626 15.637501Q53.715626 14.903126 53.184376 14.403126Q52.66875 13.903126 51.840626 13.903126Q50.95 13.903126 50.403126 14.434376Q49.871876 14.965626 49.871876 15.918751L48.60625 15.778126Q48.73125 14.371876 49.575 13.637501Q50.434376 12.887501 51.85625 12.887501Q53.309376 12.887501 54.1375 13.684376Q54.98125 14.481251 54.98125 15.668751Q54.98125 16.278126 54.73125 16.85625Q54.496876 17.434376 53.91875 18.075Q53.35625 18.715626 52.028126 19.840626Q50.91875 20.7625 50.60625 21.10625Q50.29375 21.434376 50.090626 21.7625L54.996876 21.7625ZM56.528126 20.325L57.825 20.215626Q57.965626 21.153126 58.48125 21.6375Q59.0125 22.10625 59.746876 22.10625Q60.6375 22.10625 61.246876 21.434376Q61.871876 20.7625 61.871876 19.66875Q61.871876 18.60625 61.278126 17.996876Q60.684376 17.3875 59.73125 17.3875Q59.1375 17.3875 58.653126 17.66875Q58.184376 17.934376 57.903126 18.35625L56.746876 18.215626L57.715626 13.059376L62.7 13.059376L62.7 14.246876L58.7 14.246876L58.16875 16.934376Q59.075 16.309376 60.059376 16.309376Q61.371876 16.309376 62.2625 17.215626Q63.16875 18.121876 63.16875 19.559376Q63.16875 20.91875 62.3875 21.903126Q61.41875 23.121876 59.746876 23.121876Q58.3875 23.121876 57.5125 22.35625Q56.653126 21.590626 56.528126 20.325Z" fill-rule="nonzero"/><path fill="#276359" d="M82.43592 150.33931Q82.43592 148.55806 82.795296 147.47993Q83.170296 146.38618 83.889046 145.80806Q84.607796 145.21431 85.701546 145.21431Q86.514046 145.21431 87.12342 145.54243Q87.732796 145.87056 88.12342 146.47993Q88.52967 147.08931 88.74842 147.96431Q88.96717 148.83931 88.96717 150.33931Q88.96717 152.10493 88.607796 153.18306Q88.24842 154.26118 87.52967 154.85493Q86.81092 155.44868 85.701546 155.44868Q84.264046 155.44868 83.43592 154.40181Q82.43592 153.15181 82.43592 150.33931ZM83.701546 150.33931Q83.701546 152.80806 84.27967 153.62056Q84.857796 154.43306 85.701546 154.43306Q86.56092 154.43306 87.139046 153.62056Q87.71717 152.79243 87.71717 150.33931Q87.71717 147.85493 87.139046 147.04243Q86.56092 146.22993 85.68592 146.22993Q84.84217 146.22993 84.34217 146.94868Q83.701546 147.87056 83.701546 150.33931Z" fill-rule="nonzero"/><path fill="#276359" d="M109.16218 155.27681L107.9278 155.27681L107.9278 147.43306Q107.4903 147.85493 106.75593 148.29243Q106.03718 148.71431 105.47468 148.91743L105.47468 147.72993Q106.50593 147.24556 107.27155 146.55806Q108.0528 145.87056 108.3653 145.21431L109.16218 145.21431L109.16218 155.27681Z" fill-rule="nonzero"/><path fill="#276359" d="M133.07593 154.08931L133.07593 155.27681L126.45093 155.27681Q126.4353 154.83931 126.59155 154.41743Q126.85718 153.74556 127.40405 153.08931Q127.96655 152.43306 129.01343 151.57368Q130.65405 150.22993 131.21655 149.44868Q131.79468 148.66743 131.79468 147.96431Q131.79468 147.22993 131.26343 146.72993Q130.7478 146.22993 129.91968 146.22993Q129.02905 146.22993 128.48218 146.76118Q127.95093 147.29243 127.95093 148.24556L126.6853 148.10493Q126.8103 146.69868 127.65405 145.96431Q128.51343 145.21431 129.9353 145.21431Q131.38843 145.21431 132.21655 146.01118Q133.0603 146.80806 133.0603 147.99556Q133.0603 148.60493 132.8103 149.18306Q132.57593 149.76118 131.9978 150.40181Q131.4353 151.04243 130.10718 152.16743Q128.9978 153.08931 128.6853 153.43306Q128.3728 153.76118 128.16968 154.08931L133.07593 154.08931Z" fill-rule="nonzero"/><path fill="#276359" d="M148.70844 152.63618L149.92719 152.46431Q150.14594 153.51118 150.64594 153.97993Q151.16156 154.43306 151.89594 154.43306Q152.77094 154.43306 153.36469 153.83931Q153.95844 153.22993 153.95844 152.33931Q153.95844 151.49556 153.39594 150.94868Q152.84906 150.40181 152.00531 150.40181Q151.64594 150.40181 151.13031 150.52681L151.27094 149.44868Q151.39594 149.46431 151.45844 149.46431Q152.25531 149.46431 152.88031 149.05806Q153.50531 148.65181 153.50531 147.79243Q153.50531 147.12056 153.05219 146.68306Q152.59906 146.22993 151.86469 146.22993Q151.14594 146.22993 150.66156 146.68306Q150.19281 147.12056 150.05219 148.02681L148.83344 147.80806Q149.05219 146.57368 149.84906 145.90181Q150.64594 145.21431 151.83344 145.21431Q152.66156 145.21431 153.34906 145.57368Q154.03656 145.91743 154.39594 146.52681Q154.77094 147.13618 154.77094 147.82368Q154.77094 148.46431 154.42719 148.99556Q154.08344 149.52681 153.39594 149.85493Q154.28656 150.05806 154.77094 150.69868Q155.27094 151.33931 155.27094 152.32368Q155.27094 153.63618 154.30219 154.54243Q153.34906 155.44868 151.89594 155.44868Q150.56781 155.44868 149.69281 154.66743Q148.83344 153.88618 148.70844 152.63618Z" fill-rule="nonzero"/><path fill="#276359" d="M174.73155 155.27681L174.73155 152.87056L170.37218 152.87056L170.37218 151.74556L174.9503 145.26118L175.9503 145.26118L175.9503 151.74556L177.30968 151.74556L177.30968 152.87056L175.9503 152.87056L175.9503 155.27681L174.73155 155.27681ZM174.73155 151.74556L174.73155 147.22993L171.59093 151.74556L174.73155 151.74556Z" fill-rule="nonzero"/><path fill="#276359" d="M192.86406 152.65181L194.16093 152.54243Q194.30156 153.47993 194.81718 153.96431Q195.34843 154.43306 196.08281 154.43306Q196.97343 154.43306 197.58281 153.76118Q198.20781 153.08931 198.20781 151.99556Q198.20781 150.93306 197.61406 150.32368Q197.02031 149.71431 196.06718 149.71431Q195.47343 149.71431 194.98906 149.99556Q194.52031 150.26118 194.23906 150.68306L193.08281 150.54243L194.05156 145.38618L199.03593 145.38618L199.03593 146.57368L195.03593 146.57368L194.50468 149.26118Q195.41093 148.63618 196.39531 148.63618Q197.70781 148.63618 198.59843 149.54243Q199.50468 150.44868 199.50468 151.88618Q199.50468 153.24556 198.72343 154.22993Q197.75468 155.44868 196.08281 155.44868Q194.72343 155.44868 193.84843 154.68306Q192.98906 153.91743 192.86406 152.65181Z" fill-rule="nonzero"/><path fill="#276359" d="M221.34032 147.71431L220.12157 147.80806Q219.94969 147.07368 219.65282 146.74556Q219.15282 146.22993 218.41844 146.22993Q217.82469 146.22993 217.38719 146.55806Q216.80907 146.97993 216.46532 147.79243Q216.13719 148.60493 216.12157 150.10493Q216.55907 149.43306 217.19969 149.10493Q217.85594 148.77681 218.55907 148.77681Q219.79344 148.77681 220.65282 149.68306Q221.51219 150.58931 221.51219 152.02681Q221.51219 152.96431 221.10594 153.77681Q220.69969 154.58931 219.98094 155.02681Q219.27782 155.44868 218.37157 155.44868Q216.84032 155.44868 215.87157 154.32368Q214.90282 153.18306 214.90282 150.58931Q214.90282 147.68306 215.96532 146.35493Q216.90282 145.21431 218.49657 145.21431Q219.68407 145.21431 220.43407 145.88618Q221.18407 146.54243 221.34032 147.71431ZM216.30907 152.02681Q216.30907 152.66743 216.57469 153.24556Q216.85594 153.82368 217.34032 154.13618Q217.82469 154.43306 218.35594 154.43306Q219.13719 154.43306 219.69969 153.80806Q220.26219 153.18306 220.26219 152.10493Q220.26219 151.05806 219.69969 150.46431Q219.15282 149.85493 218.30907 149.85493Q217.48094 149.85493 216.88719 150.46431Q216.30907 151.05806 216.30907 152.02681Z" fill-rule="nonzero"/><path fill="#276359" d="M237.11343 146.57368L237.11343 145.38618L243.61343 145.38618L243.61343 146.33931Q242.64468 147.35493 241.70718 149.04243Q240.76968 150.72993 240.25406 152.52681Q239.89468 153.77681 239.78531 155.27681L238.51968 155.27681Q238.53531 154.08931 238.97281 152.41743Q239.42593 150.74556 240.25406 149.19868Q241.09781 147.63618 242.03531 146.57368L237.11343 146.57368Z" fill-rule="nonzero"/><path fill="#276359" d="M261.01157 149.83931Q260.24594 149.55806 259.87094 149.04243Q259.51157 148.52681 259.51157 147.79243Q259.51157 146.69868 260.29282 145.96431Q261.0897 145.21431 262.38657 145.21431Q263.69907 145.21431 264.49594 145.97993Q265.30844 146.74556 265.30844 147.83931Q265.30844 148.52681 264.93344 149.04243Q264.57407 149.55806 263.82407 149.83931Q264.74594 150.13618 265.23032 150.80806Q265.7147 151.47993 265.7147 152.41743Q265.7147 153.69868 264.80844 154.57368Q263.9022 155.44868 262.41782 155.44868Q260.93344 155.44868 260.01157 154.57368Q259.10532 153.68306 259.10532 152.37056Q259.10532 151.40181 259.60532 150.74556Q260.10532 150.07368 261.01157 149.83931ZM260.7772 147.76118Q260.7772 148.46431 261.23032 148.91743Q261.68344 149.37056 262.41782 149.37056Q263.13657 149.37056 263.5897 148.93306Q264.04282 148.47993 264.04282 147.82368Q264.04282 147.15181 263.57407 146.69868Q263.10532 146.22993 262.4022 146.22993Q261.69907 146.22993 261.23032 146.68306Q260.7772 147.12056 260.7772 147.76118ZM260.37094 152.38618Q260.37094 152.91743 260.62094 153.41743Q260.87094 153.90181 261.35532 154.16743Q261.85532 154.43306 262.43344 154.43306Q263.30844 154.43306 263.87094 153.87056Q264.44907 153.30806 264.44907 152.43306Q264.44907 151.54243 263.85532 150.96431Q263.2772 150.37056 262.38657 150.37056Q261.51157 150.37056 260.93344 150.94868Q260.37094 151.52681 260.37094 152.38618Z" fill-rule="nonzero"/><path fill="#276359" d="M281.39407 152.96431L282.58157 152.85493Q282.7222 153.68306 283.14407 154.05806Q283.58157 154.43306 284.23782 154.43306Q284.80032 154.43306 285.2222 154.18306Q285.6597 153.91743 285.92532 153.47993Q286.20657 153.04243 286.39407 152.30806Q286.58157 151.57368 286.58157 150.80806Q286.58157 150.72993 286.56595 150.55806Q286.20657 151.15181 285.56595 151.52681Q284.92532 151.88618 284.17532 151.88618Q282.92532 151.88618 282.06595 150.97993Q281.20657 150.07368 281.20657 148.60493Q281.20657 147.07368 282.0972 146.15181Q283.00345 145.21431 284.36282 145.21431Q285.33157 145.21431 286.14407 145.74556Q286.95657 146.26118 287.37845 147.24556Q287.80032 148.21431 287.80032 150.05806Q287.80032 151.97993 287.37845 153.12056Q286.9722 154.26118 286.14407 154.85493Q285.31595 155.44868 284.20657 155.44868Q283.0347 155.44868 282.2847 154.79243Q281.55032 154.13618 281.39407 152.96431ZM286.42532 148.54243Q286.42532 147.47993 285.86282 146.85493Q285.30032 146.22993 284.51907 146.22993Q283.69095 146.22993 283.08157 146.90181Q282.4722 147.57368 282.4722 148.63618Q282.4722 149.58931 283.05032 150.19868Q283.62845 150.79243 284.4722 150.79243Q285.33157 150.79243 285.87845 150.19868Q286.42532 149.58931 286.42532 148.54243Z" fill-rule="nonzero"/><path fill="#276359" d="M303.93283 155.27681L302.69846 155.27681L302.69846 147.43306Q302.26096 147.85493 301.52658 148.29243Q300.80783 148.71431 300.24533 148.91743L300.24533 147.72993Q301.27658 147.24556 302.0422 146.55806Q302.82346 145.87056 303.13596 145.21431L303.93283 145.21431L303.93283 155.27681ZM307.2922 150.33931Q307.2922 148.55806 307.65158 147.47993Q308.02658 146.38618 308.74533 145.80806Q309.46408 145.21431 310.55783 145.21431Q311.37033 145.21431 311.9797 145.54243Q312.58908 145.87056 312.9797 146.47993Q313.38596 147.08931 313.6047 147.96431Q313.82346 148.83931 313.82346 150.33931Q313.82346 152.10493 313.46408 153.18306Q313.1047 154.26118 312.38596 154.85493Q311.6672 155.44868 310.55783 155.44868Q309.12033 155.44868 308.2922 154.40181Q307.2922 153.15181 307.2922 150.33931ZM308.55783 150.33931Q308.55783 152.80806 309.13596 153.62056Q309.71408 154.43306 310.55783 154.43306Q311.4172 154.43306 311.99533 153.62056Q312.57346 152.79243 312.57346 150.33931Q312.57346 147.85493 311.99533 147.04243Q311.4172 146.22993 310.5422 146.22993Q309.69846 146.22993 309.19846 146.94868Q308.55783 147.87056 308.55783 150.33931Z" fill-rule="nonzero"/><path fill="#276359" d="M326.01843 155.27681L324.78406 155.27681L324.78406 147.43306Q324.34656 147.85493 323.61218 148.29243Q322.89343 148.71431 322.33093 148.91743L322.33093 147.72993Q323.36218 147.24556 324.1278 146.55806Q324.90906 145.87056 325.22156 145.21431L326.01843 145.21431L326.01843 155.27681ZM334.01843 155.27681L332.78406 155.27681L332.78406 147.43306Q332.34656 147.85493 331.61218 148.29243Q330.89343 148.71431 330.33093 148.91743L330.33093 147.72993Q331.36218 147.24556 332.1278 146.55806Q332.90906 145.87056 333.22156 145.21431L334.01843 145.21431L334.01843 155.27681Z" fill-rule="nonzero"/><path fill="#276359" d="M348.10406 155.27681L346.8697 155.27681L346.8697 147.43306Q346.4322 147.85493 345.6978 148.29243Q344.97906 148.71431 344.41656 148.91743L344.41656 147.72993Q345.4478 147.24556 346.21344 146.55806Q346.9947 145.87056 347.3072 145.21431L348.10406 145.21431L348.10406 155.27681ZM357.9322 154.08931L357.9322 155.27681L351.3072 155.27681Q351.29156 154.83931 351.4478 154.41743Q351.71344 153.74556 352.2603 153.08931Q352.8228 152.43306 353.8697 151.57368Q355.5103 150.22993 356.0728 149.44868Q356.65094 148.66743 356.65094 147.96431Q356.65094 147.22993 356.1197 146.72993Q355.60406 146.22993 354.77594 146.22993Q353.8853 146.22993 353.33844 146.76118Q352.8072 147.29243 352.8072 148.24556L351.54156 148.10493Q351.66656 146.69868 352.5103 145.96431Q353.3697 145.21431 354.79156 145.21431Q356.2447 145.21431 357.0728 146.01118Q357.91656 146.80806 357.91656 147.99556Q357.91656 148.60493 357.66656 149.18306Q357.4322 149.76118 356.85406 150.40181Q356.29156 151.04243 354.96344 152.16743Q353.85406 153.08931 353.54156 153.43306Q353.22906 153.76118 353.02594 154.08931L357.9322 154.08931Z" fill-rule="nonzero"/><path fill="#276359" d="M370.1897 155.27681L368.95532 155.27681L368.95532 147.43306Q368.51782 147.85493 367.78345 148.29243Q367.0647 148.71431 366.5022 148.91743L366.5022 147.72993Q367.53345 147.24556 368.29907 146.55806Q369.08032 145.87056 369.39282 145.21431L370.1897 145.21431L370.1897 155.27681ZM373.5647 152.63618L374.78345 152.46431Q375.0022 153.51118 375.5022 153.97993Q376.01782 154.43306 376.7522 154.43306Q377.6272 154.43306 378.22095 153.83931Q378.8147 153.22993 378.8147 152.33931Q378.8147 151.49556 378.2522 150.94868Q377.70532 150.40181 376.86157 150.40181Q376.5022 150.40181 375.98657 150.52681L376.1272 149.44868Q376.2522 149.46431 376.3147 149.46431Q377.11157 149.46431 377.73657 149.05806Q378.36157 148.65181 378.36157 147.79243Q378.36157 147.12056 377.90845 146.68306Q377.45532 146.22993 376.72095 146.22993Q376.0022 146.22993 375.51782 146.68306Q375.04907 147.12056 374.90845 148.02681L373.6897 147.80806Q373.90845 146.57368 374.70532 145.90181Q375.5022 145.21431 376.6897 145.21431Q377.51782 145.21431 378.20532 145.57368Q378.89282 145.91743 379.2522 146.52681Q379.6272 147.13618 379.6272 147.82368Q379.6272 148.46431 379.28345 148.99556Q378.9397 149.52681 378.2522 149.85493Q379.14282 150.05806 379.6272 150.69868Q380.1272 151.33931 380.1272 152.32368Q380.1272 153.63618 379.15845 154.54243Q378.20532 155.44868 376.7522 155.44868Q375.42407 155.44868 374.54907 154.66743Q373.6897 153.88618 373.5647 152.63618Z" fill-rule="nonzero"/><path fill="#276359" d="M392.27533 155.27681L391.04095 155.27681L391.04095 147.43306Q390.60345 147.85493 389.86908 148.29243Q389.15033 148.71431 388.58783 148.91743L388.58783 147.72993Q389.61908 147.24556 390.3847 146.55806Q391.16595 145.87056 391.47845 145.21431L392.27533 145.21431L392.27533 155.27681ZM399.58783 155.27681L399.58783 152.87056L395.22845 152.87056L395.22845 151.74556L399.80658 145.26118L400.80658 145.26118L400.80658 151.74556L402.16595 151.74556L402.16595 152.87056L400.80658 152.87056L400.80658 155.27681L399.58783 155.27681ZM399.58783 151.74556L399.58783 147.22993L396.4472 151.74556L399.58783 151.74556Z" fill-rule="nonzero"/><path fill="#276359" d="M414.36096 155.27681L413.1266 155.27681L413.1266 147.43306Q412.6891 147.85493 411.9547 148.29243Q411.23596 148.71431 410.67346 148.91743L410.67346 147.72993Q411.7047 147.24556 412.47034 146.55806Q413.2516 145.87056 413.5641 145.21431L414.36096 145.21431L414.36096 155.27681ZM417.72034 152.65181L419.0172 152.54243Q419.15784 153.47993 419.67346 153.96431Q420.2047 154.43306 420.9391 154.43306Q421.8297 154.43306 422.4391 153.76118Q423.0641 153.08931 423.0641 151.99556Q423.0641 150.93306 422.47034 150.32368Q421.8766 149.71431 420.92346 149.71431Q420.3297 149.71431 419.84534 149.99556Q419.3766 150.26118 419.09534 150.68306L417.9391 150.54243L418.90784 145.38618L423.8922 145.38618L423.8922 146.57368L419.8922 146.57368L419.36096 149.26118Q420.2672 148.63618 421.2516 148.63618Q422.5641 148.63618 423.4547 149.54243Q424.36096 150.44868 424.36096 151.88618Q424.36096 153.24556 423.5797 154.22993Q422.61096 155.44868 420.9391 155.44868Q419.5797 155.44868 418.7047 154.68306Q417.84534 153.91743 417.72034 152.65181Z" fill-rule="nonzero"/></svg>